<?xml version="1.0" encoding="UTF-8"?>
<svg width="70px" height="70px" version="1.1" xmlns="http://www.w3.org/2000/svg">
 <path class="ColorScheme-Text" d="m68.113 4.7402c0.67782 0 1.2235 0.52008 1.2235 1.1661v2.3322c0 0.64601-0.54568 1.1661-1.2235 1.1661h-8.5645v-4.6644zm0 9.3287c0.67782 0 1.2235 0.52008 1.2235 1.1661v2.3322c0 0.64601-0.54568 1.1661-1.2235 1.1661h-8.5645v-4.6644zm0 9.3287c0.67782 0 1.2235 0.52008 1.2235 1.1661v2.3322c0 0.64601-0.54568 1.1661-1.2235 1.1661h-8.5645v-4.6644zm0 9.3287c0.67782 0 1.2235 0.52008 1.2235 1.1661v2.3322c0 0.64601-0.54568 1.1661-1.2235 1.1661h-8.5645v-4.6644zm0 9.3287c0.67782 0 1.2235 0.52007 1.2235 1.1661v2.3322c0 0.64601-0.54568 1.1661-1.2235 1.1661h-8.5645v-4.6644zm0 9.3287c0.67782 0 1.2235 0.52007 1.2235 1.1661v2.3322c0 0.64601-0.54568 1.1661-1.2235 1.1661h-8.5645v-4.6644zm0 9.3287c0.67782 0 1.2235 0.52008 1.2235 1.1661v2.3322c0 0.64601-0.54568 1.1661-1.2235 1.1661h-8.5645v-4.6644zm-66.069-55.972c-0.67782 0-1.2235 0.52008-1.2235 1.1661v2.3322c0 0.64601 0.54568 1.1661 1.2235 1.1661h8.5645v-4.6644zm0 9.3287c-0.67782 0-1.2235 0.52008-1.2235 1.1661v2.3322c0 0.64601 0.54568 1.1661 1.2235 1.1661h8.5645v-4.6644zm0 9.3287c-0.67782 0-1.2235 0.52008-1.2235 1.1661v2.3322c0 0.64601 0.54568 1.1661 1.2235 1.1661h8.5645v-4.6644zm0 9.3287c-0.67782 0-1.2235 0.52008-1.2235 1.1661v2.3322c0 0.64601 0.54568 1.1661 1.2235 1.1661h8.5645v-4.6644zm0 9.3287c-0.67782 0-1.2235 0.52007-1.2235 1.1661v2.3322c0 0.64601 0.54568 1.1661 1.2235 1.1661h8.5645v-4.6644zm0 9.3287c-0.67782 0-1.2235 0.52007-1.2235 1.1661v2.3322c0 0.64601 0.54568 1.1661 1.2235 1.1661h8.5645v-4.6644zm0 9.3287c-0.67782 0-1.2235 0.52008-1.2235 1.1661v2.3322c0 0.64601 0.54568 1.1661 1.2235 1.1661h8.5645v-4.6644zm18.353-60.636h29.364c2.7113 0 4.894 2.0803 4.894 4.6644v60.637c0 2.584-2.1827 4.6644-4.894 4.6644h-29.364c-2.7113 0-4.894-2.0803-4.894-4.6644v-60.637c0-2.5841 2.1827-4.6644 4.894-4.6644z" fill="currentColor" stroke-width="4.7778"/>
</svg>
