<?xml version="1.0" encoding="UTF-8" standalone="no"?>
<svg
   version="1.1"
   viewBox="0 0 16 16"
   id="svg1"
   sodipodi:docname="info-ico.svg"
   inkscape:version="1.3.2 (091e20ef0f, 2023-11-25, custom)"
   xmlns:inkscape="http://www.inkscape.org/namespaces/inkscape"
   xmlns:sodipodi="http://sodipodi.sourceforge.net/DTD/sodipodi-0.dtd"
   xmlns="http://www.w3.org/2000/svg"
   xmlns:svg="http://www.w3.org/2000/svg">
  <sodipodi:namedview
     id="namedview1"
     pagecolor="#ffffff"
     bordercolor="#000000"
     borderopacity="0.25"
     inkscape:showpageshadow="2"
     inkscape:pageopacity="0.0"
     inkscape:pagecheckerboard="0"
     inkscape:deskcolor="#d1d1d1"
     inkscape:zoom="50.5"
     inkscape:cx="8"
     inkscape:cy="8"
     inkscape:window-width="1920"
     inkscape:window-height="1012"
     inkscape:window-x="0"
     inkscape:window-y="0"
     inkscape:window-maximized="1"
     inkscape:current-layer="svg1" />
  <defs
     id="defs1">
    <style
       id="current-color-scheme"
       type="text/css">.ColorScheme-Text {
        color:#232629;
      }</style>
  </defs>
  <path
     class="ColorScheme-Text"
     d="M 4.0684533,3.0458704 C 3.0305629,3.4236312 2.4953403,4.5713865 2.8731084,5.6092958 l 0.6840401,1.8793853 0.3420203,0.9396925 c 0.094449,0.2594961 -0.03935,0.546411 -0.2988363,0.6408563 L 3.1304862,9.24024 l 0.3420202,0.939693 0.4698463,-0.17101 c 0.2594867,-0.094446 0.5464074,0.03934 0.6408564,0.298836 l 0.34202,0.939692 0.3420203,0.939694 0.3420202,0.939692 c 0.3777955,1.037985 1.5254688,1.573129 2.5634251,1.195344 L 9.1123878,13.980162 8.7703672,13.040468 7.8306744,13.382489 C 7.3117016,13.57138 6.73786,13.303809 6.5489623,12.784817 L 6.2069421,11.845124 5.8649218,10.905431 5.5229017,9.9657387 C 5.392079,9.6063063 5.1406261,9.3226731 4.8284968,9.1543037 4.959376,8.8246923 4.9696841,8.4457858 4.8388614,8.0863535 L 4.4968413,7.1466609 4.4006481,6.8823722 3.8127839,5.2672287 C 3.6238862,4.7482364 3.8915393,4.1743863 4.4104565,3.9855156 L 5.3501488,3.6434961 5.0081287,2.7038034 4.0684359,3.0458237 Z M 6.8875309,2.0198103 7.2295514,2.9595022 8.1692438,2.6174827 C 8.6881615,2.4286118 9.2620593,2.696162 9.4509563,3.2151552 l 0.5878647,1.6151436 0.09619,0.2642877 0.342021,0.9396928 c 0.130822,0.3594332 0.382274,0.6430658 0.694405,0.8114354 -0.130882,0.3296099 -0.141189,0.7085177 -0.01037,1.06795 l 0.34202,0.9396924 0.34202,0.9396936 0.342022,0.9396923 c 0.188897,0.518992 -0.0787,1.092822 -0.597673,1.281713 l -0.939693,0.34202 0.34202,0.939693 0.939693,-0.342021 c 1.037985,-0.377795 1.573141,-1.525441 1.195345,-2.563425 L 12.784808,9.4510302 12.442787,8.5113379 12.100767,7.5716447 c -0.09445,-0.2594964 0.03935,-0.5464105 0.298836,-0.6408566 L 12.86945,6.7597784 12.52743,5.8200855 12.057583,5.9910952 c -0.259487,0.094446 -0.546408,-0.03934 -0.640856,-0.2988361 L 11.074706,4.7525672 10.390667,2.8731814 C 10.012905,1.8352915 8.8651498,1.300069 7.8272409,1.6778366 L 6.8875482,2.0198569 Z"
     fill="currentColor"
     id="path1" />
</svg>
