<?xml version="1.0" encoding="UTF-8"?>
<svg width="110px" height="110px" version="1.1" viewBox="0 0 16 16" xmlns="http://www.w3.org/2000/svg">
 <path class="ColorScheme-Text" d="m4.0685 3.0459c-1.0379 0.37776-1.5731 1.5255-1.1953 2.5634l1.0261 2.8191c0.094449 0.2595-0.03935 0.54641-0.29884 0.64086l-0.46985 0.17101 0.34202 0.93969 0.46985-0.17101c0.25949-0.094446 0.54641 0.03934 0.64086 0.29884l1.0261 2.8191c0.3778 1.038 1.5255 1.5731 2.5634 1.1953l0.93969-0.34202-0.34202-0.93969-0.93969 0.34202c-0.51897 0.18889-1.0928-0.07868-1.2817-0.59767l-1.0261-2.8191c-0.13082-0.35943-0.38228-0.64307-0.6944-0.81144 0.13088-0.32961 0.14119-0.70852 0.010365-1.068l-1.0261-2.8191c-0.1889-0.51899 0.078755-1.0928 0.59767-1.2817l0.93969-0.34202-0.34202-0.93969-0.93969 0.34202zm2.8191-1.0261 0.34202 0.93969 0.93969-0.34202c0.51892-0.18887 1.0928 0.078679 1.2817 0.59767l0.58786 1.6151 0.09619 0.26429 0.34202 0.93969c0.13082 0.35943 0.38227 0.64307 0.6944 0.81144-0.13088 0.32961-0.14119 0.70852-0.01037 1.068l1.0261 2.8191c0.1889 0.51899-0.0787 1.0928-0.59767 1.2817l-0.93969 0.34202 0.34202 0.93969 0.93969-0.34202c1.038-0.3778 1.5731-1.5254 1.1953-2.5634l-0.34201-0.93969-0.34202-0.93969-0.34202-0.93969c-0.09445-0.2595 0.03935-0.54641 0.29884-0.64086l0.46985-0.17101-0.34202-0.93969-0.46985 0.17101c-0.25949 0.094446-0.54641-0.03934-0.64086-0.29884l-0.34202-0.93969-0.68404-1.8794c-0.37776-1.0379-1.5255-1.5731-2.5634-1.1953l-0.93969 0.34202z"/>
</svg>
