<?xml version="1.0" encoding="UTF-8" standalone="no"?>
<svg
   version="1.1"
   viewBox="0 0 16 16"
   id="svg1"
   sodipodi:docname="info-ico-dark.svg"
   inkscape:version="1.3.2 (091e20ef0f, 2023-11-25, custom)"
   xmlns:inkscape="http://www.inkscape.org/namespaces/inkscape"
   xmlns:sodipodi="http://sodipodi.sourceforge.net/DTD/sodipodi-0.dtd"
   xmlns="http://www.w3.org/2000/svg"
   xmlns:svg="http://www.w3.org/2000/svg">
  <sodipodi:namedview
     id="namedview1"
     pagecolor="#ffffff"
     bordercolor="#000000"
     borderopacity="0.25"
     inkscape:showpageshadow="2"
     inkscape:pageopacity="0.0"
     inkscape:pagecheckerboard="0"
     inkscape:deskcolor="#d1d1d1"
     inkscape:zoom="50.5"
     inkscape:cx="8"
     inkscape:cy="8"
     inkscape:window-width="1920"
     inkscape:window-height="1012"
     inkscape:window-x="0"
     inkscape:window-y="0"
     inkscape:window-maximized="1"
     inkscape:current-layer="svg1" />
  <defs
     id="defs1">
    <style
       id="current-color-scheme"
       type="text/css">.ColorScheme-Text {
        color:#232629;
      }</style>
  </defs>
  <path
     class="ColorScheme-Text"
     d="M 4.0684939,3.0458846 C 3.0306034,3.4236458 2.4953809,4.5714008 2.8731489,5.6093101 L 3.5571892,7.4886953 3.8992094,8.428388 c 0.094449,0.2594961 -0.03935,0.5464109 -0.2988363,0.6408563 L 3.1305268,9.2402544 3.472547,10.179947 3.9423933,10.008937 c 0.2594867,-0.094445 0.5464075,0.03934 0.6408564,0.298836 l 0.3420201,0.939693 0.3420201,0.939692 0.3420202,0.939693 c 0.3777954,1.037985 1.5254692,1.57313 2.5634255,1.195345 l 0.9396926,-0.34202 -0.3420201,-0.939693 -0.9396926,0.34202 C 7.311742,13.571394 6.7379004,13.303823 6.5490027,12.784831 L 6.2069826,11.845138 5.8649624,10.905446 5.5229423,9.9657531 C 5.3921196,9.6063206 5.1406668,9.3226873 4.8285374,9.154318 4.9594167,8.8247066 4.9697247,8.4458002 4.838902,8.0863678 L 4.4968819,7.1466752 4.4006887,6.8823866 3.8128245,5.267243 C 3.6239267,4.7482507 3.8915799,4.1744006 4.4104969,3.9855302 L 5.3501896,3.6435101 5.0081694,2.7038174 4.0684768,3.0458376 Z M 6.8875718,2.0198241 7.2295919,2.9595168 8.1692845,2.6174966 c 0.5189171,-0.1888704 1.0928151,0.07868 1.2817128,0.5976725 l 0.5878647,1.6151437 0.09619,0.2642885 0.34202,0.9396926 c 0.130823,0.3594325 0.382275,0.6430657 0.694405,0.8114351 -0.13088,0.3296113 -0.141188,0.7085177 -0.01037,1.0679502 l 0.34202,0.9396926 0.34202,0.9396926 0.342021,0.9396926 c 0.188897,0.518992 -0.0787,1.092822 -0.597673,1.281713 l -0.939693,0.34202 0.342021,0.939693 0.939692,-0.342021 c 1.037985,-0.377795 1.573141,-1.525441 1.195345,-2.563425 L 12.784848,9.4510443 12.442828,8.5113517 12.100808,7.571659 c -0.09445,-0.2594961 0.03935,-0.5464109 0.298836,-0.6408563 L 12.86949,6.7597926 12.52747,5.8201 12.057624,5.99111 c -0.259487,0.094445 -0.546408,-0.03934 -0.640857,-0.2988362 L 11.074747,4.7525812 10.390707,2.8731959 C 10.012946,1.8353054 8.8651908,1.3000829 7.8272815,1.677851 L 6.8875889,2.0198711 Z"
     fill="#e6e8ea"
     id="path1" />
</svg>
